<svg width="17" height="17" viewBox="0 0 17 17" fill="none" xmlns="http://www.w3.org/2000/svg">
<g clip-path="url(#clip0_310_186)">
<path d="M6.07386 1.02661C4.47522 1.5812 3.09654 2.63382 2.14035 4.02987C1.18416 5.42591 0.700854 7.09179 0.761418 8.78282C0.821982 10.4738 1.42323 12.1009 2.47684 13.425C3.53045 14.749 4.98089 15.7003 6.61511 16.1391C7.94002 16.481 9.32813 16.496 10.6601 16.1829C11.8668 15.9118 12.9823 15.3321 13.8976 14.5004C14.8502 13.6083 15.5417 12.4735 15.8976 11.2179C16.2845 9.85245 16.3534 8.41653 16.0989 7.02036H8.65886V10.1066H12.9676C12.8815 10.5988 12.697 11.0687 12.4251 11.4879C12.1531 11.9072 11.7994 12.2672 11.3851 12.5466C10.859 12.8947 10.2659 13.1288 9.64387 13.2341C9.02005 13.3501 8.38019 13.3501 7.75636 13.2341C7.1241 13.1034 6.52599 12.8424 6.00011 12.4679C5.1553 11.8698 4.52096 11.0203 4.18762 10.0404C3.84863 9.04211 3.84863 7.95987 4.18762 6.96161C4.4249 6.26188 4.81716 5.62478 5.33511 5.09786C5.92785 4.4838 6.67828 4.04486 7.50406 3.82921C8.32984 3.61356 9.19906 3.62953 10.0164 3.87536C10.6548 4.07135 11.2387 4.41379 11.7214 4.87536C12.2072 4.39203 12.6922 3.90745 13.1764 3.42161C13.4264 3.16036 13.6989 2.91161 13.9451 2.64411C13.2083 1.95846 12.3435 1.42494 11.4001 1.07411C9.68224 0.450351 7.80259 0.433588 6.07386 1.02661Z" fill="white"/>
<path d="M6.07372 1.02624C7.8023 0.432816 9.68196 0.449138 11.4 1.07249C12.3435 1.4257 13.208 1.96179 13.9437 2.64999C13.6937 2.91749 13.43 3.16749 13.175 3.42749C12.69 3.91166 12.2054 4.39416 11.7212 4.87499C11.2385 4.41342 10.6547 4.07098 10.0162 3.87499C9.19919 3.6283 8.32999 3.6114 7.50399 3.82617C6.678 4.04094 5.92711 4.47907 5.33372 5.09249C4.81576 5.61941 4.4235 6.25652 4.18622 6.95624L1.59497 4.94999C2.52248 3.1107 4.12841 1.70377 6.07372 1.02624Z" fill="#E33629"/>
<path d="M0.907438 6.9377C1.04671 6.24744 1.27794 5.57898 1.59494 4.9502L4.18619 6.96145C3.84721 7.9597 3.84721 9.04194 4.18619 10.0402C3.32285 10.7069 2.4591 11.3769 1.59494 12.0502C0.801376 10.4706 0.559354 8.67082 0.907438 6.9377Z" fill="#F8BD00"/>
<path d="M8.65876 7.01855H16.0988C16.3533 8.41472 16.2844 9.85064 15.8975 11.2161C15.5416 12.4717 14.8501 13.6065 13.8975 14.4986C13.0613 13.8461 12.2213 13.1986 11.385 12.5461C11.7996 12.2664 12.1535 11.9059 12.4254 11.4862C12.6973 11.0665 12.8817 10.5962 12.9675 10.1036H8.65876C8.65751 9.07605 8.65876 8.0473 8.65876 7.01855Z" fill="#587DBD"/>
<path d="M1.59375 12.05C2.45792 11.3834 3.32167 10.7134 4.185 10.04C4.51901 11.0203 5.15426 11.8699 6 12.4675C6.52751 12.8404 7.12691 13.0992 7.76 13.2275C8.38382 13.3435 9.02368 13.3435 9.6475 13.2275C10.2695 13.1223 10.8626 12.8881 11.3888 12.54C12.225 13.1925 13.065 13.84 13.9012 14.4925C12.9861 15.3247 11.8705 15.9049 10.6637 16.1763C9.33176 16.4894 7.94365 16.4744 6.61875 16.1325C5.57088 15.8528 4.59209 15.3595 3.74375 14.6838C2.84583 13.9709 2.11244 13.0725 1.59375 12.05Z" fill="#319F43"/>
</g>
<defs>
<clipPath id="clip0_310_186">
<rect width="16" height="16" fill="white" transform="translate(0.5 0.5)"/>
</clipPath>
</defs>
</svg>
